# xmcd CD database file
#
# Track frame offsets:
#	150
#	20463
#	38157
#	56833
#	73705
#	97710
#	112499
#	132123
#	153070
#	173425
#
# Disc length: 2583 seconds
#
# Revision: 0
# Processed by: cddbd v1.5.1PL0 Copyright (c) Steve Scherf et al.
# Submitted via: CDex 1.51
#
DISCID=7a0a150a
DTITLE=Brad VanWinkle - Demo
DYEAR=1900
DGENRE=Country
TTITLE0=Blue Skies
TTITLE1=Back to the Country
TTITLE2=Country Boy
TTITLE3=Early in the Mornin'
TTITLE4=I Don't Know
TTITLE5=King of Luv
TTITLE6=Prisoner
TTITLE7=Time and Trouble
TTITLE8=Turn on the Radio
TTITLE9=Where Do I Go
EXTD=
EXTT0=
EXTT1=
EXTT2=
EXTT3=
EXTT4=
EXTT5=
EXTT6=
EXTT7=
EXTT8=
EXTT9=
PLAYORDER=
